<svg width="458" height="459" viewBox="0 0 458 459" fill="none" xmlns="http://www.w3.org/2000/svg">
<rect width="458" height="458" transform="translate(0 0.164062)" fill="#010101"/>
<path fill-rule="evenodd" clip-rule="evenodd" d="M199.763 302.769L199.763 239.087C192.214 242.552 185.334 247.336 179.451 253.22C172.944 259.727 167.782 267.451 164.261 275.953C160.739 284.455 158.927 293.567 158.927 302.769H100.453C100.453 285.888 103.778 269.172 110.238 253.576C116.699 237.98 126.167 223.809 138.104 211.873C150.04 199.936 164.211 190.468 179.807 184.008C195.403 177.548 212.119 174.223 228.999 174.223L258.236 174.223V195.002C264.829 190.715 271.817 187.032 279.117 184.008C294.713 177.548 311.429 174.223 328.31 174.223L357.547 174.223V302.769H299.073V239.087C291.524 242.552 284.645 247.336 278.761 253.22C272.254 259.727 267.093 267.451 263.571 275.953C260.05 284.455 258.237 293.567 258.237 302.769L258.236 302.769L199.764 302.769L199.763 302.769Z" fill="white"/>
<rect x="159.658" y="136.543" width="58.4733" height="58.4733" transform="rotate(90 159.658 136.543)" fill="white"/>
</svg>
